HIERARCHY
ROOT Model_Hips
{
	OFFSET 0.000000 96.915077 0.000000
	CHANNELS 6 Xposition Yposition Zposition Xrotation Yrotation Zrotation
	JOINT Model_Spine
	{
		OFFSET 0.000000 11.137703 -1.289900
		CHANNELS 3 Xrotation Yrotation Zrotation
		JOINT Model_Spine1
		{
			OFFSET 0.000000 12.993942 -1.504922
			CHANNELS 3 Xrotation Yrotation Zrotation
			JOINT Model_Spine2
			{
				OFFSET 0.000000 14.850220 -1.719911
				CHANNELS 3 Xrotation Yrotation Zrotation
				JOINT Model_Neck
				{
					OFFSET 0.000000 16.706543 -1.934903
					CHANNELS 3 Xrotation Yrotation Zrotation
					JOINT Model_Head
					{
						OFFSET 0.000000 10.471298 2.002100
						CHANNELS 3 Xrotation Yrotation Zrotation
						JOINT Model_HeadTop_End
						{
							OFFSET 0.000000 20.842606 3.985100
							CHANNELS 3 Xrotation Yrotation Zrotation
							End Site
							{
								OFFSET 0.000000 21.220154 0.000000
							}
						}
					}
				}
				JOINT Model_LeftShoulder
				{
					OFFSET 7.008500 14.768600 -1.919946
					CHANNELS 3 Xrotation Yrotation Zrotation
					JOINT Model_LeftArm
					{
						OFFSET 14.126271 -3.718048 0.029937
						CHANNELS 3 Xrotation Yrotation Zrotation
						JOINT Model_LeftForeArm
						{
							OFFSET 28.282801 0.000000 0.000000
							CHANNELS 3 Xrotation Yrotation Zrotation
							JOINT Model_LeftHand
							{
								OFFSET 26.204689 0.000000 0.000000
								CHANNELS 3 Xrotation Yrotation Zrotation
								End Site
								{
									OFFSET 26.204704 0.000000 0.000000
								}
							}
						}
					}
				}
				JOINT Model_RightShoulder
				{
					OFFSET -7.008500 14.768555 -1.949840
					CHANNELS 3 Xrotation Yrotation Zrotation
					JOINT Model_RightArm
					{
						OFFSET -14.126281 -3.718018 -0.029932
						CHANNELS 3 Xrotation Yrotation Zrotation
						JOINT Model_RightForeArm
						{
							OFFSET -28.283798 0.000000 -0.000001
							CHANNELS 3 Xrotation Yrotation Zrotation
							JOINT Model_RightHand
							{
								OFFSET -26.204193 0.000000 -0.000001
								CHANNELS 3 Xrotation Yrotation Zrotation
								End Site
								{
									OFFSET -26.204208 0.000000 -0.000001
								}
							}
						}
					}
				}
			}
		}
	}
	JOINT Model_LeftUpLeg
	{
		OFFSET 8.327700 -6.193199 -0.402800
		CHANNELS 3 Xrotation Yrotation Zrotation
		JOINT Model_LeftLeg
		{
			OFFSET 0.735802 -42.108742 -0.610721
			CHANNELS 3 Xrotation Yrotation Zrotation
			JOINT Model_LeftFoot
			{
				OFFSET -0.735806 -36.833748 -0.172876
				CHANNELS 3 Xrotation Yrotation Zrotation
				JOINT Model_LeftToeBase
				{
					OFFSET -0.565857 -11.977769 16.297714
					CHANNELS 3 Xrotation Yrotation Zrotation
					JOINT Model_LeftToe_End
					{
						OFFSET -0.111712 -0.312793 7.857784
						CHANNELS 3 Xrotation Yrotation Zrotation
						End Site
						{
							OFFSET -0.111712 -0.312793 7.857784
						}
					}
				}
			}
		}
	}
	JOINT Model_RightUpLeg
	{
		OFFSET -8.327700 -6.193199 -0.516500
		CHANNELS 3 Xrotation Yrotation Zrotation
		JOINT Model_RightLeg
		{
			OFFSET -0.735785 -42.108738 -0.434061
			CHANNELS 3 Xrotation Yrotation Zrotation
			JOINT Model_RightFoot
			{
				OFFSET 0.735776 -36.833748 -0.021630
				CHANNELS 3 Xrotation Yrotation Zrotation
				JOINT Model_RightToeBase
				{
					OFFSET 0.565817 -11.977745 15.903093
					CHANNELS 3 Xrotation Yrotation Zrotation
					JOINT Model_RightToe_End
					{
						OFFSET 0.111702 -0.312791 7.811342
						CHANNELS 3 Xrotation Yrotation Zrotation
						End Site
						{
							OFFSET 0.111702 -0.312791 7.811342
						}
					}
				}
			}
		}
	}
}
MOTION
Frames: 11
Frame Time: 0.016667
-0.562032 90.115227 138.397583 16.948203 8.480581 -2.388840 7.349238 -7.989642 0.595328 4.955151 -3.895114 0.048399 5.006333 -3.836516 -0.121867 -4.334450 0.699037 1.179325 -4.322016 0.750408 1.201362 0.000000 0.000000 0.000001 0.979107 -19.622766 -6.589537 -40.662763 -19.719311 -52.699052 0.000022 -72.075803 0.000030 -0.000000 0.000000 -0.000000 1.457200 20.862328 4.232263 19.904227 -4.417511 60.041898 0.000016 29.557968 -0.000010 0.000002 0.000000 0.000002 -9.048400 8.928062 -1.330403 30.906275 9.521966 -0.664863 -33.052525 -2.740977 -4.458227 -13.470556 -0.000003 -0.000004 0.000001 -0.000000 -0.000000 -66.615607 -10.775167 -0.612373 116.172884 -10.128324 -0.715364 19.411386 -0.803317 -15.559676 -0.382620 0.000005 0.000004 0.000000 0.000000 0.000000 
-0.354624 90.489159 147.386459 16.284354 5.084356 -6.631887 8.442499 -8.474506 4.820574 5.237937 -4.048966 0.860653 5.280096 -4.056713 0.613678 -4.033180 1.529766 1.393750 -4.015703 1.590831 1.374178 0.000003 -0.000001 0.000000 2.204181 -19.192425 1.877320 -47.598827 -13.256721 -52.975104 -0.000087 -83.233573 -0.000019 -0.000002 0.000000 0.000000 2.331825 22.065800 -0.559754 30.618406 -3.621112 59.610053 0.000013 40.195072 -0.000003 -0.000000 0.000000 0.000001 0.291211 13.525790 4.339295 21.647516 8.473174 -0.391822 -26.443721 -1.699311 -7.955619 -21.641019 0.000003 0.000004 0.000000 -0.000002 -0.000001 -70.889154 -10.841358 7.385281 107.823893 -10.198441 -0.972481 14.514825 -4.094301 -17.252687 0.591299 0.000001 0.000005 -0.000001 0.000001 0.000002 
-0.063169 89.981682 155.895035 16.238189 1.573634 -12.379972 9.662396 -9.067156 11.061704 5.496454 -4.212775 1.731462 5.540535 -4.298515 1.391793 -3.243946 2.475206 1.251199 -3.221402 2.532049 1.178104 0.000003 -0.000001 -0.000000 0.763956 -17.494804 1.576983 -50.250501 -12.538878 -44.628743 0.000105 -94.673956 0.000027 0.000001 -0.000001 0.000000 2.595797 24.865116 -3.331387 40.970299 -7.522299 57.292252 0.000062 52.495120 -0.000040 0.000003 0.000002 0.000001 2.090162 16.893986 12.024078 23.773028 9.978606 -0.432326 -20.072186 -0.682812 -13.025156 -30.176766 0.000002 -0.000004 -0.000001 0.000002 0.000000 -75.472095 -12.088677 15.934143 98.218189 -9.402304 -1.123758 10.105705 -6.169404 -16.927534 0.950097 0.000005 0.000019 0.000000 0.000001 -0.000001 
0.100275 89.778854 164.379730 16.999555 -1.550507 -15.216367 10.069722 -9.594433 14.555037 5.533884 -4.469818 2.218330 5.552395 -4.647112 1.823189 -2.116534 3.363059 0.828824 -2.097274 3.392337 0.706660 0.000000 -0.000002 0.000001 -0.054638 -15.715920 1.388182 -50.897258 -11.449178 -36.287771 0.000070 -104.054264 0.000055 -0.000001 -0.000000 0.000001 2.106779 28.139859 -3.303998 47.473841 -14.572921 56.037795 -0.000027 59.957798 0.000012 -0.000000 -0.000001 -0.000002 2.057697 17.052518 15.941771 27.762479 11.845441 -0.460120 -6.123869 -0.362938 -15.520826 -39.199709 0.438824 -2.933478 0.000001 -0.000001 0.000000 -79.132782 -11.333884 21.292944 86.765122 -8.233693 -1.089585 5.956681 -5.174271 -15.877087 0.258684 0.000008 0.000006 0.000001 -0.000001 -0.000002 
0.286964 90.235588 173.313446 18.240003 -3.493551 -15.002854 9.614190 -9.938205 15.331994 5.261173 -4.505051 2.366697 5.254212 -4.724754 1.978275 -1.189234 3.838427 0.440710 -1.177654 3.845551 0.296426 -0.000000 0.000000 -0.000000 -0.196725 -14.760339 1.273697 -47.639429 -9.969755 -30.941232 0.000007 -110.888982 0.000013 -0.000003 0.000002 -0.000001 1.995702 30.263086 -3.248475 49.438706 -20.697983 57.744543 0.000016 62.066632 -0.000013 -0.000001 0.000000 0.000001 8.713960 16.198306 12.311881 15.823525 10.222656 -0.509950 20.706384 0.708771 -5.157520 -56.304685 9.422868 -10.064887 0.000001 -0.000001 0.000000 -79.626414 -8.840937 23.053231 73.530565 -7.166577 -0.889906 2.297693 -1.452975 -13.389608 0.127824 -0.000004 0.000007 0.000002 -0.000000 0.000000 
0.544041 91.282784 183.015244 19.159736 -4.563268 -11.763543 8.548612 -9.686211 12.988113 4.759427 -4.083108 2.222939 4.757751 -4.270702 1.903762 -0.997966 3.716538 0.633471 -0.987346 3.729560 0.510517 -0.000002 0.000001 0.000000 0.142869 -14.592889 1.182374 -38.954447 -9.431477 -30.303179 0.000017 -113.850907 0.000006 -0.000001 0.000002 0.000001 2.330872 30.346944 -3.176060 47.608362 -24.116993 61.069295 0.000039 59.887167 -0.000032 -0.000002 0.000001 0.000001 13.416878 13.621228 6.260577 14.047542 9.864663 -0.234757 33.824702 3.636252 -2.172636 1.110154 0.057046 -1.694847 -0.000000 0.000001 0.000000 -75.529960 -5.658507 21.642537 58.987460 -3.601677 -0.609857 0.762212 1.074635 -10.067962 0.146666 -0.000000 -0.000001 0.000001 0.000001 0.000001 
0.915474 91.984001 193.006790 19.111638 -5.115604 -7.631636 8.046306 -8.708635 9.468413 4.435727 -3.307730 1.930430 4.459738 -3.427399 1.696007 -1.746181 3.141393 1.503649 -1.731510 3.179639 1.422957 0.000000 0.000002 -0.000001 0.756650 -15.014832 1.107871 -28.232054 -11.511521 -33.564892 0.000053 -109.893441 0.000023 -0.000001 0.000000 -0.000000 2.966154 28.763808 -3.047606 43.553265 -24.471622 64.333217 0.000003 55.987477 -0.000009 0.000001 -0.000000 0.000001 11.974386 11.710263 0.966713 27.041675 9.792402 0.022027 37.510634 4.609931 -3.405888 8.080699 -0.000004 0.000004 -0.000002 -0.000000 -0.000002 -68.067746 -3.714089 18.485861 44.754091 1.851016 -0.345854 2.514261 0.720814 -6.456945 -1.084568 0.000010 0.000004 0.000001 -0.000001 0.000000 
1.345222 91.952629 202.616699 18.192429 -4.958589 -5.036851 8.779586 -7.739062 7.414322 4.588183 -2.477314 1.652513 4.633430 -2.541563 1.466022 -3.159873 2.428095 2.539976 -3.145828 2.494419 2.487284 0.000002 -0.000001 0.000000 1.505401 -15.587530 1.052747 -20.610898 -15.297704 -39.670299 0.000059 -98.253747 -0.000011 -0.000002 0.000001 0.000003 2.521539 27.008759 0.137902 39.694525 -23.866151 64.563203 0.000010 54.771888 0.000006 -0.000001 0.000001 0.000001 7.215240 12.243687 -1.469518 46.822579 9.600814 0.265458 37.300565 4.135298 -5.397804 6.609738 -0.000001 0.000003 0.000001 0.000001 -0.000001 -59.425057 -3.672924 15.287954 32.657115 3.776141 -0.158310 6.371122 0.553364 -3.107270 -2.725253 -0.000002 -0.000004 0.000000 0.000001 0.000000 
1.653318 91.993233 212.403046 16.927652 -5.149432 -2.857431 9.569906 -6.598768 5.654487 4.804052 -2.084204 1.523574 4.852141 -2.104056 1.381634 -4.426693 1.955096 3.109615 -4.410753 2.041056 3.076224 0.000002 0.000000 -0.000000 1.574459 -15.788387 -1.520883 -14.605779 -18.719371 -45.603168 -0.000038 -80.974256 -0.000029 0.000003 -0.000003 -0.000000 1.475020 25.933033 4.865308 35.184524 -20.749664 61.941073 0.000013 54.675159 -0.000002 0.000001 0.000002 0.000003 3.005693 14.609454 -2.492604 63.824464 9.464579 0.459694 38.444997 4.527710 -5.970682 3.916871 -0.000002 0.000002 0.000000 0.000001 0.000002 -50.520461 -4.703314 12.391119 24.761710 4.022855 -0.132956 9.035946 0.607126 -1.498707 -2.598310 -0.000000 -0.000001 0.000000 -0.000001 -0.000001 
1.696053 91.910393 221.958328 16.100976 -5.650625 -1.295194 9.745445 -5.282966 4.379712 4.898659 -2.122523 1.493684 4.935601 -2.117819 1.399850 -5.110917 1.791541 3.126656 -5.086511 1.887560 3.112165 0.000003 0.000000 -0.000000 0.972206 -15.411021 -6.452347 -10.188229 -20.815956 -49.836837 -0.000026 -60.207571 -0.000004 0.000001 0.000001 -0.000001 0.753320 25.219577 8.489713 29.726469 -14.373051 58.622810 -0.000013 55.075217 -0.000005 -0.000001 -0.000001 0.000000 -3.189226 17.240921 -1.474423 80.268923 9.386364 0.679443 39.684820 6.452866 -5.790935 3.168090 0.000004 -0.000010 -0.000004 0.000003 -0.000002 -43.788404 -6.573581 10.151225 23.759665 4.197274 -0.122826 6.699389 0.528517 -3.031563 -1.126742 0.000803 -0.222834 0.000000 -0.000000 0.000001 
1.455119 91.483749 231.255219 15.985785 -5.941967 -1.020037 9.207028 -4.076962 4.269921 4.785435 -2.223343 1.514632 4.808018 -2.209321 1.467644 -5.272384 1.787112 2.847940 -5.239066 1.888160 2.848112 0.000000 0.000001 -0.000000 0.420762 -14.804903 -11.112891 -8.018209 -22.324917 -53.804125 -0.000012 -36.185960 -0.000027 -0.000001 -0.000000 0.000000 0.175559 24.005820 11.724339 23.113691 -6.459391 54.943316 0.000000 55.559549 0.000004 0.000002 -0.000000 -0.000000 -12.204328 18.438352 2.085587 96.109286 9.317077 0.874178 40.268418 8.409549 -4.929330 5.869707 -0.000003 0.000006 0.000000 0.000000 -0.000000 -40.734534 -8.896041 9.321885 32.333969 4.208669 -0.028171 -6.113935 1.125836 -10.040899 -0.343054 0.000002 -0.000001 0.000001 0.000000 0.000000 
